<svg width="30" height="30" viewBox="0 0 30 30" fill="none" xmlns="http://www.w3.org/2000/svg">
<path fill-rule="evenodd" clip-rule="evenodd" d="M20.523 8.0875H20.779C24.144 8.0875 26.875 10.9 26.875 14.35V21.25C26.875 24.7 24.144 27.5 20.779 27.5H9.221C5.85601 27.5 3.125 24.7 3.125 21.25V14.35C3.125 10.9 5.85601 8.0875 9.221 8.0875H9.47703C9.50141 6.5875 10.0744 5.1875 11.1108 4.1375C12.1593 3.075 13.5004 2.5375 15.0122 2.5C18.0358 2.5 20.4864 5 20.523 8.0875ZM12.3909 5.475C11.7082 6.175 11.3302 7.1 11.3058 8.0875H18.6942C18.6576 6.0375 17.0239 4.375 15.0122 4.375C14.0734 4.375 13.098 4.7625 12.3909 5.475ZM19.633 12.9C20.145 12.9 20.5474 12.475 20.5474 11.9625V10.5125C20.5474 10 20.145 9.575 19.633 9.575C19.1331 9.575 18.7186 10 18.7186 10.5125V11.9625C18.7186 12.475 19.1331 12.9 19.633 12.9ZM11.1717 11.9625C11.1717 12.475 10.7694 12.9 10.2573 12.9C9.75744 12.9 9.34292 12.475 9.34292 11.9625V10.5125C9.34292 10 9.75744 9.575 10.2573 9.575C10.7694 9.575 11.1717 10 11.1717 10.5125V11.9625Z" fill="white"/>
</svg>
